<?xml version="1.0" standalone="no"?><!DOCTYPE svg PUBLIC "-//W3C//DTD SVG 1.1//EN" "http://www.w3.org/Graphics/SVG/1.1/DTD/svg11.dtd"><svg t="1505961899427" class="icon" style="" viewBox="0 0 1036 1024" version="1.1" xmlns="http://www.w3.org/2000/svg" p-id="9872" xmlns:xlink="http://www.w3.org/1999/xlink" width="129.5" height="128"><defs><style type="text/css"></style></defs><path d="M303.785517 0 0 0l0 303.762524 303.785517 0L303.785517 0zM264.317773 264.2258 39.58271 264.2258 39.58271 39.421758l224.746559 0L264.329269 264.2258z" p-id="9873" fill="#f5b774"></path><path d="M95.341103 95.237633l113.264264 0 0 113.183788-113.264264 0 0-113.183788Z" p-id="9874" fill="#f5b774"></path><path d="M731.53861 1024l303.820007 0L1035.358617 720.214483 731.53861 720.214483 731.53861 1024zM771.109824 759.728214l224.781049 0 0 224.850028L771.109824 984.578242 771.109824 759.728214z" p-id="9875" fill="#f5b774"></path><path d="M826.948692 815.532592l113.183788 0 0 113.126305-113.183788 0 0-113.126305Z" p-id="9876" fill="#f5b774"></path><path d="M731.53861 0l0 303.762524 303.820007 0L1035.358617 0 731.53861 0zM995.902369 264.2258 771.109824 264.2258 771.109824 39.421758l224.781049 0L995.890872 264.2258z" p-id="9877" fill="#f5b774"></path><path d="M826.948692 95.237633l113.183788 0 0 113.183788-113.183788 0 0-113.183788Z" p-id="9878" fill="#f5b774"></path><path d="M675.53879 430.109891l55.99982 0 0 33.627484-55.99982 0 0-33.627484Z" p-id="9879" fill="#f5b774"></path><path d="M327.893836 0l82.890311 0 0 117.092624-82.890311 0 0-117.092624Z" p-id="9880" fill="#f5b774"></path><path d="M494.180308 0l110.769507 0 0 58.55206-110.769507 0 0-58.55206Z" p-id="9881" fill="#f5b774"></path><path d="M635.243292 29.247289l40.295498 0 0 200.741709-40.295498 0 0-200.741709Z" p-id="9882" fill="#f5b774"></path><path d="M549.50183 139.683395 549.50183 117.092624 494.180308 117.092624 452.459234 117.092624 452.459234 139.683395 494.180308 139.683395Z" p-id="9883" fill="#f5b774"></path><path d="M574.725317 303.762524 574.725317 208.421421 574.725317 165.849601 473.279533 165.849601 473.279533 208.421421 521.898552 208.421421 521.898552 303.762524Z" p-id="9884" fill="#f5b774"></path><path d="M410.784147 151.835276l32.960683 0 0 56.597642-32.960683 0 0-56.597642Z" p-id="9885" fill="#f5b774"></path><path d="M410.784147 303.762524l83.407657 0 0 65.277557-83.407657 0 0-65.277557Z" p-id="9886" fill="#f5b774"></path><path d="M75.980869 336.343819l132.613001 0 0 93.766072-132.613001 0 0-93.766072Z" p-id="9887" fill="#f5b774"></path><path d="M267.456338 642.520624l159.779409 0 0 38.858426-159.779409 0 0-38.858426Z" p-id="9888" fill="#f5b774"></path><path d="M517.702302 605.823555l57.023016 0 0 36.708566-57.023016 0 0-36.708566Z" p-id="9889" fill="#f5b774"></path><path d="M655.396789 681.390547l20.142001 0 0 38.823936-20.142001 0 0-38.823936Z" p-id="9890" fill="#f5b774"></path><path d="M665.467789 807.680431l38.076659 0 0 87.373976-38.076659 0 0-87.373976Z" p-id="9891" fill="#f5b774"></path><path d="M303.785517 778.686067l65.518985 0 0 36.846525-65.518985 0 0-36.846525Z" p-id="9892" fill="#f5b774"></path><path d="M431.55846 948.410015 369.304502 948.410015 369.304502 900.400314 142.293118 900.400314 142.293118 963.539508 223.033569 963.539508 267.456338 963.539508 267.456338 1024 452.459234 1024 452.459234 963.539508 431.55846 963.539508Z" p-id="9893" fill="#f5b774"></path><path d="M771.270776 383.272842l83.913506 0 0 46.83705-83.913506 0 0-46.83705Z" p-id="9894" fill="#f5b774"></path><path d="M494.180308 430.109891 574.725317 430.109891 574.725317 562.550443 635.243292 562.550443 635.243292 430.109891 635.243292 406.714359 731.53861 406.714359 731.53861 369.040081 683.390951 369.040081 683.390951 303.762524 635.243292 303.762524 635.243292 369.040081 494.180308 369.040081Z" p-id="9895" fill="#f5b774"></path><path d="M883.511845 383.272842 883.511845 483.339037 826.948692 483.339037 826.948692 580.634557 883.511845 580.634557 883.511845 496.307174 940.13248 496.307174 940.13248 383.272842Z" p-id="9896" fill="#f5b774"></path><path d="M771.270776 580.634557l41.962501 0 0 43.526036-41.962501 0 0-43.526036Z" p-id="9897" fill="#f5b774"></path><path d="M731.53861 624.160593 731.53861 580.634557 771.270776 580.634557 771.270776 483.339037 731.53861 483.339037 731.53861 562.550443 635.243292 562.550443 635.243292 624.160593Z" p-id="9898" fill="#f5b774"></path><path d="M883.511845 580.634557l56.632132 0 0 74.083934-56.632132 0 0-74.083934Z" p-id="9899" fill="#f5b774"></path><path d="M771.270776 654.718491l112.229572 0 0 26.672056-112.229572 0 0-26.672056Z" p-id="9900" fill="#f5b774"></path><path d="M604.949815 985.405995 604.949815 928.658897 517.702302 928.658897 517.702302 872.141731 574.725317 872.141731 574.725317 815.532592 604.949815 815.532592 604.949815 741.851039 574.725317 741.851039 574.725317 807.680431 517.702302 807.680431 517.702302 846.423891 484.063321 846.423891 443.733333 846.423891 443.733333 872.141731 410.784147 872.141731 410.784147 928.658897 452.459234 928.658897 452.459234 872.141731 484.063321 872.141731 484.063321 928.658897 494.180308 928.658897 494.180308 985.405995Z" p-id="9901" fill="#f5b774"></path><path d="M0 336.343819l45.687392 0 0 180.059369-45.687392 0 0-180.059369Z" p-id="9902" fill="#f5b774"></path><path d="M121.196901 704.452678 121.196901 658.431885 154.307039 658.431885 154.307039 633.921186 121.196901 633.921186 121.196901 566.217851 121.196901 540.086135 187.50915 540.086135 187.50915 603.236825 201.937353 603.236825 201.937353 609.444976 282.689301 609.444976 282.689301 597.017178 242.313327 597.017178 242.313327 500.055058 187.50915 500.055058 121.196901 500.055058 121.196901 486.925968 88.040777 486.925968 88.040777 566.217851 54.884653 566.217851 54.884653 658.431885 24.671652 658.431885 24.671652 745.460963 1.827956 745.460963 1.827956 875.751656 88.040777 875.751656 88.040777 745.460963 54.884653 745.460963 54.884653 704.452678Z" p-id="9903" fill="#f5b774"></path><path d="M0.712788 563.527652l36.168227 0 0 72.141013-36.168227 0 0-72.141013Z" p-id="9904" fill="#f5b774"></path><path d="M977.806759 336.343819l57.540362 0 0 46.929022-57.540362 0 0-46.929022Z" p-id="9905" fill="#f5b774"></path><path d="M1006.605681 496.307174 940.13248 496.307174 940.13248 531.969552 1035.358617 531.969552 1035.358617 496.307174 1035.358617 425.810172 1006.605681 425.810172Z" p-id="9906" fill="#f5b774"></path><path d="M1006.605681 624.160593 954.261772 624.160593 954.261772 668.077512 1006.605681 668.077512 1006.605681 698.30201 1035.358617 698.30201 1035.358617 580.634557 1006.605681 580.634557Z" p-id="9907" fill="#f5b774"></path><path d="M684.460132 993.752509 517.702302 993.752509 517.702302 1024 684.460132 1024 703.532952 1024 703.532952 993.752509 703.532952 931.992904 684.460132 931.992904Z" p-id="9908" fill="#f5b774"></path><path d="M347.323049 230.000494l96.410284 0 0 26.051241-96.410284 0 0-26.051241Z" p-id="9909" fill="#f5b774"></path><path d="M327.893836 855.82809 327.893836 836.89323 208.605367 836.89323 208.605367 741.851039 142.293118 741.851039 142.293118 851.321433 195.234849 851.321433 195.234849 855.82809Z" p-id="9910" fill="#f5b774"></path><path d="M223.033569 700.842753l80.740451 0 0 41.008286-80.740451 0 0-41.008286Z" p-id="9911" fill="#f5b774"></path><path d="M54.884653 948.444504 74.233389 948.444504 74.233389 928.658897 54.884653 928.658897 1.827956 928.658897 1.827956 948.444504 1.827956 1024 24.671652 1024 54.884653 1024 154.307039 1024 154.307039 993.775502 54.884653 993.775502Z" p-id="9912" fill="#f5b774"></path><path d="M574.725317 642.520624l30.213001 0 0 58.322129-30.213001 0 0-58.322129Z" p-id="9913" fill="#f5b774"></path><path d="M589.877804 256.051735l20.739823 0 0 80.292085-20.739823 0 0-80.292085Z" p-id="9914" fill="#f5b774"></path><path d="M473.279533 774.94968 400.506209 774.94968 400.506209 796.574739 473.279533 796.574739 494.180308 796.574739 494.180308 774.94968 494.180308 720.214483 546.248299 720.214483 546.248299 681.390547 494.180308 681.390547 494.180308 698.30201 473.279533 698.30201 373.581228 698.30201 373.581228 720.214483 336.539261 720.214483 336.539261 741.851039 410.784147 741.851039 410.784147 731.055754 473.279533 731.055754Z" p-id="9915" fill="#f5b774"></path><path d="M494.180308 642.520624 494.180308 580.634557 473.992321 580.634557 473.992321 605.823555 400.506209 605.823555 400.506209 562.550443 373.581228 562.550443 373.581228 630.253778 400.506209 630.253778 473.992321 630.253778 473.992321 642.520624Z" p-id="9916" fill="#f5b774"></path><path d="M635.243292 741.851039l48.147659 0 0 33.098642-48.147659 0 0-33.098642Z" p-id="9917" fill="#f5b774"></path><path d="M751.439183 670.146896 703.532952 670.146896 703.532952 639.416549 684.460132 639.416549 684.460132 700.842753 694.025283 700.842753 703.532952 700.842753 751.439183 700.842753Z" p-id="9918" fill="#f5b774"></path><path d="M347.323049 387.859975 267.456338 387.859975 267.456338 463.748872 388.572763 463.748872 388.572763 549.547816 516.426182 549.547816 516.426182 443.204491 400.506209 443.204491 400.506209 387.859975 373.581228 387.859975 373.581228 303.762524 347.323049 303.762524Z" p-id="9919" fill="#f5b774"></path></svg>