<?xml version="1.0" standalone="no"?><!DOCTYPE svg PUBLIC "-//W3C//DTD SVG 1.1//EN" "http://www.w3.org/Graphics/SVG/1.1/DTD/svg11.dtd"><svg t="1505961851797" class="icon" style="" viewBox="0 0 1024 1024" version="1.1" xmlns="http://www.w3.org/2000/svg" p-id="9169" xmlns:xlink="http://www.w3.org/1999/xlink" width="128" height="128"><defs><style type="text/css"></style></defs><path d="M94.102215 65.503876h357.448018c36.346813 3.546779 27.584242 66.63156 27.584242 107.618043v195.134259c0 42.413995 8.100492 94.390787-20.388353 106.440218-18.555611 7.841595-68.352761 2.362814-92.363617 2.362814H176.869267c-43.812855 0-103.633289 10.308787-110.355387-27.199479V92.702332c4.901637-13.301957 13.515828-22.939455 27.588335-27.198456z m49.181119 80.419588v254.267031h257.889535V142.373615H144.484695c-1.400906 0.197498-1.306762 1.87265-1.201361 3.549849zM573.894675 65.503876h357.449042c14.58109 5.332449 24.597211 15.168468 27.584242 31.93227v347.691817c-3.270487 14.452153-10.923794 26.787086-25.187659 30.747282-23.313985 6.472412-62.059428 1.184989-89.961918 1.184988H660.256602c-27.67327 0-68.691475 5.748934-91.156116-1.184988-31.722492-9.782807-22.790052-70.827115-22.790052-113.530707V180.217525c-0.001023-49.301869-10.979052-107.824751 27.584241-114.713649z m49.180096 80.419588v254.267031h257.888512V142.373615H624.27204c-1.39579 0.197498-1.301645 1.87265-1.197269 3.549849z m-362.246301 74.506924c35.919071-6.684236 64.160275 17.242709 64.776306 49.66719 0.804319 42.766013-43.49256 66.25703-77.967746 48.493457-39.441291-20.329001-36.846186-88.851631 13.19144-98.160647z m479.792461 0c84.603887-15.58393 82.980923 116.51262 0 102.887299-52.8026-8.670473-54.508451-92.849688 0-102.887299zM449.151603 957.214944h-353.84905c-14.69263-4.443196-24.614607-13.580297-28.78765-28.38549V572.854996c3.492544-10.41828 11.556197-22.570042 23.986297-26.019606 23.483854-6.513344 61.836347-1.184989 89.966011-1.184989h183.517687c27.123754 0 66.593697-5.965875 91.161233 1.184989 33.234939 9.67229 23.986297 69.729108 23.986297 112.350834v188.039677c0.002047 46.000684 10.055007 105.881492-29.980825 109.989043zM143.283334 626.069989V880.343159h257.889535V622.522186H144.484695c-1.400906 0.201591-1.306762 1.87265-1.201361 3.547803z m815.644625-48.485271v99.343589c-2.795673 33.505092-0.398066 72.135924-1.194198 107.618043H702.240809v-57.946761c-23.992437-2.764973-53.179177-0.399089-79.165014-1.187035-2.800789 74.900897-0.399089 154.924465-1.201362 231.800344h-46.778396c-40.222073-7.953136-28.785603-67.457368-28.785603-114.719788V659.1852c0-27.562752-5.661953-68.888973 1.195221-91.062995 8.18645-26.460652 43.665499-22.471804 79.170131-22.471804h173.923168v157.290349h80.367399c0.796132-52.03512-1.600451-107.22407 1.195221-157.290349 38.673811-2.254344 74.498738-1.698688 76.766385 31.934317zM266.831184 699.390901c38.35147-4.184299 70.050426 32.161491 55.176671 72.149227-20.623713 55.420217-119.221312 34.589796-100.759845-35.482119 5.103228-19.368116 19.848047-33.850969 45.583174-36.667108z m521.771551 257.824043h-86.361926c0.797156-30.359448-1.601474-63.866586 1.201361-92.247984h85.160565v92.247984z m170.325224-92.249007v60.315714c-3.334955 16.813944-13.30912 27.079752-28.785604 31.93227h-61.173244c0.797156-30.359448-1.599428-63.866586 1.201361-92.247984h88.757487z" p-id="9170" fill="#f5b774"></path></svg>