<?xml version="1.0" standalone="no"?><!DOCTYPE svg PUBLIC "-//W3C//DTD SVG 1.1//EN" "http://www.w3.org/Graphics/SVG/1.1/DTD/svg11.dtd"><svg t="1506076522184" class="icon" style="" viewBox="0 0 1024 1024" version="1.1" xmlns="http://www.w3.org/2000/svg" p-id="2548" xmlns:xlink="http://www.w3.org/1999/xlink" width="200" height="200"><defs><style type="text/css"></style></defs><path d="M842.947 778.117l-266.1-266.104 266.1-266.13c8.675-8.674 13.447-20.208 13.439-32.478-0.009-12.232-4.773-23.715-13.415-32.332-8.655-8.678-20.15-13.45-32.385-13.457-12.286 0-23.808 4.771-32.474 13.434L512.019 447.144 245.882 181.05c-8.663-8.663-20.175-13.434-32.416-13.434-12.24 0-23.752 4.77-32.414 13.432-8.66 8.637-13.43 20.125-13.438 32.357-0.008 12.27 4.764 23.804 13.438 32.477l266.135 266.13L181.05 778.118c-8.664 8.663-13.436 20.173-13.436 32.415 0 12.24 4.773 23.753 13.438 32.418 8.662 8.663 20.173 13.432 32.413 13.432 12.24 0 23.754-4.77 32.416-13.432L512.015 576.85l266.102 266.1c8.663 8.664 20.186 13.433 32.443 13.433 12.265-0.008 23.749-4.771 32.369-13.412 17.887-17.89 17.893-46.98 0.018-64.854z" p-id="2549" fill="#e25d55"></path></svg>