<?xml version="1.0" standalone="no"?><!DOCTYPE svg PUBLIC "-//W3C//DTD SVG 1.1//EN" "http://www.w3.org/Graphics/SVG/1.1/DTD/svg11.dtd"><svg t="1505455728369" class="icon" style="" viewBox="0 0 1024 1024" version="1.1" xmlns="http://www.w3.org/2000/svg" p-id="6015" xmlns:xlink="http://www.w3.org/1999/xlink" width="200" height="200"><defs><style type="text/css"></style></defs><path d="M449.163636 388.654545h-4.654545c-107.054545 2.327273-190.836364 90.763636-188.509091 195.49091 0 51.2 20.945455 100.072727 58.181818 134.981818s83.781818 53.527273 132.654546 53.527272h4.654545c51.2 0 100.072727-20.945455 134.981818-58.181818s55.854545-86.109091 53.527273-137.309091c0-51.2-20.945455-100.072727-58.181818-134.981818s-83.781818-53.527273-132.654546-53.527273z" fill="#4BB7EA" p-id="6016"></path><path d="M512 0C228.072727 0 0 228.072727 0 512s228.072727 512 512 512 512-228.072727 512-512S795.927273 0 512 0z m300.218182 416.581818c-4.654545 4.654545-11.636364 6.981818-18.618182 6.981818-13.963636 0-25.6-11.636364-25.6-25.6l-2.327273-109.381818-130.327272 134.981818c34.909091 41.890909 55.854545 95.418182 55.854545 151.272728 2.327273 134.981818-104.727273 246.690909-239.709091 249.018181h-4.654545c-132.654545 0-242.036364-107.054545-244.363637-239.70909-2.327273-134.981818 104.727273-246.690909 239.709091-249.018182h4.654546c53.527273 0 107.054545 18.618182 151.272727 51.2l130.327273-134.981818-111.709091 2.327272c-13.963636 0-25.6-11.636364-25.6-25.6 0-6.981818 2.327273-13.963636 6.981818-18.618182 4.654545-4.654545 11.636364-6.981818 18.618182-6.981818l174.545454-4.654545c6.981818 0 13.963636 2.327273 18.618182 6.981818 4.654545 4.654545 6.981818 11.636364 6.981818 18.618182l2.327273 174.545454c2.327273 6.981818 0 13.963636-6.981818 18.618182z" fill="#4BB7EA" p-id="6017"></path></svg>