<?xml version="1.0" standalone="no"?><!DOCTYPE svg PUBLIC "-//W3C//DTD SVG 1.1//EN" "http://www.w3.org/Graphics/SVG/1.1/DTD/svg11.dtd"><svg t="1505446577193" class="icon" style="" viewBox="0 0 1024 1024" version="1.1" xmlns="http://www.w3.org/2000/svg" p-id="2705" xmlns:xlink="http://www.w3.org/1999/xlink" width="200" height="200"><defs><style type="text/css"></style></defs><path d="M512.483467 824.946804c27.883666 0 50.394238-22.577306 50.394238-50.399294l0-100.655009 101.466938 0c28.087912 0 50.665218-22.577306 50.665218-50.532762 0-27.816932-22.577306-50.527706-50.665218-50.527706L562.877705 572.832034l0-50.532762 101.466938 0c28.087912 0 50.665218-22.510572 50.665218-50.466028 0-27.883666-22.577306-50.460972-50.665218-50.460972l-76.269819 0 69.681359-69.819882c19.691569-19.686513 19.691569-51.671283 0-71.495309-19.686513-19.686513-51.738017-19.686513-71.429586 0.07179l-66.855277 66.922011-66.928078-66.922011c-19.686513-19.758303-51.671283-19.758303-71.429586-0.07179-19.753247 19.824026-19.753247 51.808796 0 71.495309l69.748093 69.819882-89.572118 0c-27.817943 0-50.527706 22.577306-50.527706 50.460972 0 27.955455 22.709763 50.466028 50.527706 50.466028l100.59333 0 0 50.532762-100.59333 0c-27.817943 0-50.527706 22.711785-50.527706 50.527706 0 27.955455 22.709763 50.532762 50.527706 50.532762l100.59333 0 0 100.655009C461.950706 802.369497 484.594746 824.946804 512.483467 824.946804L512.483467 824.946804zM512.483467 824.946804" p-id="2706" fill="#ffffff"></path><path d="M955.837496 294.708215c-1.814961-4.97269-4.101104-9.540932-7.054587-13.642036-0.404448-0.670373-0.809907-1.409502-1.075832-2.081897l-0.537916 0.201213c-8.802814-10.883699-22.305315-17.805829-37.29113-17.805829-26.879623 0-48.717801 21.634942-48.717801 48.44682 0 12.366002 4.700699 23.655161 12.36398 32.185983 26.879623 54.161673 41.996884 115.107963 41.996884 179.615419 0 223.223017-180.958187 404.115481-404.047736 404.115481-223.088538 0-403.975946-180.82573-403.975946-404.115481 0-223.088538 180.887408-403.981002 403.975946-403.981002 87.219241 0 167.922823 27.61673 233.907526 74.587315 9.073794 12.099066 23.653138 19.89076 39.915998 19.89076 27.549996 0 49.855311-22.378116 49.855311-49.788577 0-14.046484-5.91101-26.612688-15.11726-35.681426L820.034933 126.58519c-0.265925-0.204246-0.671384-0.471182-0.805863-0.670373-2.081897-1.954496-4.300295-3.629922-6.853374-5.244681C727.84199 55.423551 621.674354 16.517662 506.499657 16.517662c-277.045965 0-501.546027 224.566796-501.546027 501.612761 0 276.980242 224.565785 501.546027 501.546027 501.546027s501.546027-224.565785 501.546027-501.546027C1008.180163 437.899034 989.298501 361.968951 955.837496 294.708215L955.837496 294.708215zM955.837496 294.708215" p-id="2707" fill="#ffffff"></path></svg>