<?xml version="1.0" standalone="no"?><!DOCTYPE svg PUBLIC "-//W3C//DTD SVG 1.1//EN" "http://www.w3.org/Graphics/SVG/1.1/DTD/svg11.dtd"><svg t="1505446611460" class="icon" style="" viewBox="0 0 1024 1024" version="1.1" xmlns="http://www.w3.org/2000/svg" p-id="4211" xmlns:xlink="http://www.w3.org/1999/xlink" width="200" height="200"><defs><style type="text/css"></style></defs><path d="M814.08 601.6c-74.24 0-140.8 38.4-179.2 99.84L409.6 581.12c7.68-20.48 10.24-43.52 10.24-69.12s-5.12-46.08-10.24-69.12l225.28-120.32c38.4 58.88 102.4 99.84 179.2 99.84 115.2 0 209.92-94.72 209.92-209.92S929.28 0 814.08 0c-115.2 0-209.92 94.72-209.92 209.92 0 12.8 0 25.6 2.56 38.4l-235.52 125.44c-38.4-46.08-97.28-74.24-161.28-74.24C94.72 302.08 0 396.8 0 512c0 115.2 94.72 209.92 209.92 209.92 64 0 122.88-28.16 161.28-74.24l235.52 125.44c-2.56 12.8-2.56 25.6-2.56 38.4 0 115.2 94.72 209.92 209.92 209.92 115.2 0 209.92-94.72 209.92-209.92 0-115.2-94.72-209.92-209.92-209.92z m0-524.8C888.32 76.8 947.2 135.68 947.2 209.92s-58.88 133.12-133.12 133.12c-74.24 0-133.12-58.88-133.12-133.12S739.84 76.8 814.08 76.8zM209.92 645.12C135.68 645.12 76.8 586.24 76.8 512c0-74.24 58.88-133.12 133.12-133.12s133.12 58.88 133.12 133.12c2.56 74.24-58.88 133.12-133.12 133.12zM814.08 947.2c-74.24 0-133.12-58.88-133.12-133.12 0-74.24 58.88-133.12 133.12-133.12 74.24 0 133.12 58.88 133.12 133.12 0 74.24-58.88 133.12-133.12 133.12z" p-id="4212" fill="#ffffff"></path></svg>