<?xml version="1.0" standalone="no"?><!DOCTYPE svg PUBLIC "-//W3C//DTD SVG 1.1//EN" "http://www.w3.org/Graphics/SVG/1.1/DTD/svg11.dtd"><svg t="1505446596968" class="icon" style="" viewBox="0 0 1024 1024" version="1.1" xmlns="http://www.w3.org/2000/svg" p-id="3488" xmlns:xlink="http://www.w3.org/1999/xlink" width="200" height="200"><defs><style type="text/css"></style></defs><path d="M537.6 817.90976 537.6 972.8l204.8 0 0 51.2-460.8 0 0-51.2 204.8 0L486.4 817.90976c-143.50336-12.9536-256-133.4272-256-280.30976l0-102.4 51.2 0 0 102.4C281.6 664.84224 384.75776 768 512 768s230.4-103.15776 230.4-230.4l0-102.4 51.2 0 0 102.4C793.6 684.48256 681.1136 804.95616 537.6 817.90976zM512 716.8c-98.9696 0-179.2-80.2304-179.2-179.2l0-358.4C332.8 80.2304 413.0304 0 512 0s179.2 80.2304 179.2 179.2l0 358.4C691.2 636.5696 610.9696 716.8 512 716.8z" p-id="3489" fill="#ffffff"></path></svg>