<?xml version="1.0" standalone="no"?><!DOCTYPE svg PUBLIC "-//W3C//DTD SVG 1.1//EN" "http://www.w3.org/Graphics/SVG/1.1/DTD/svg11.dtd"><svg t="1505455733653" class="icon" style="" viewBox="0 0 1024 1024" version="1.1" xmlns="http://www.w3.org/2000/svg" p-id="6706" xmlns:xlink="http://www.w3.org/1999/xlink" width="200" height="200"><defs><style type="text/css"></style></defs><path d="M423.563636 309.527273c-79.127273 79.127273-79.127273 209.454545 0 290.909091 79.127273 79.127273 209.454545 79.127273 290.909091 0 79.127273-79.127273 79.127273-209.454545 0-290.909091-81.454545-79.127273-209.454545-79.127273-290.909091 0z" fill="#F19EC2" p-id="6707"></path><path d="M512 0C228.072727 0 0 228.072727 0 512s228.072727 512 512 512 512-228.072727 512-512S795.927273 0 512 0z m237.381818 635.345455c-93.090909 93.090909-242.036364 100.072727-344.436363 16.290909l-37.236364 37.236363 90.763636 90.763637c9.309091 9.309091 9.309091 25.6 0 37.236363s-25.6 9.309091-37.236363 0l-90.763637-90.763636-51.2 55.854545c-9.309091 9.309091-25.6 9.309091-37.236363 0-9.309091-9.309091-9.309091-25.6 0-37.236363l53.527272-53.527273-90.763636-90.763636c-9.309091-9.309091-9.309091-25.6 0-37.236364 9.309091-9.309091 25.6-9.309091 37.236364 0l90.763636 90.763636 37.236364-37.236363c-81.454545-100.072727-76.8-249.018182 16.290909-344.436364 100.072727-100.072727 262.981818-100.072727 363.054545 0 100.072727 102.4 100.072727 262.981818 0 363.054546z" fill="#F19EC2" p-id="6708"></path></svg>