<?xml version="1.0" standalone="no"?><!DOCTYPE svg PUBLIC "-//W3C//DTD SVG 1.1//EN" "http://www.w3.org/Graphics/SVG/1.1/DTD/svg11.dtd"><svg t="1505891253930" class="icon" style="" viewBox="0 0 1024 1024" version="1.1" xmlns="http://www.w3.org/2000/svg" p-id="1839" xmlns:xlink="http://www.w3.org/1999/xlink" width="128" height="128"><defs><style type="text/css"></style></defs><path d="M416.38278 122.30658l0 198.212364 99.053993 0 0 97.953939-297.43725-0.403183 0 100.661607-98.990548 0L119.008976 122.30658 416.38278 122.30658zM364.071368 157.315932 164.882769 157.315932l0 196.773596 199.188598 0L364.071368 157.315932z" p-id="1840" fill="#f5b774"></path><path d="M212.593398 212.670657l99.486852 0 0 97.472985-99.486852 0 0-97.472985Z" p-id="1841" fill="#f5b774"></path><path d="M711.346699 219.46848l101.054557 0 0 97.472985-101.054557 0 0-97.472985Z" p-id="1842" fill="#f5b774"></path><path d="M909.886521 123.111922 909.886521 418.627403l-97.486288 0 0 100.105952-101.054557 0L711.345676 418.627403l-99.250468 0L612.095207 214.280318l-96.658434 0 0-91.973738L909.886521 123.111922zM860.168166 163.111938 663.577742 163.111938l0 196.5894 196.590424 0L860.168166 163.111938z" p-id="1843" fill="#f5b774"></path><path d="M515.436774 418.473907 515.436774 518.732331 612.095207 518.732331 612.095207 418.627403Z" p-id="1844" fill="#f5b774"></path><path d="M414.104901 518.732331l0 397.285329L118.204657 916.01766 118.204657 616.617709l199.018729 0 0-97.885378L414.104901 518.732331zM361.931634 672.414503 162.743036 672.414503l0 196.772572 199.188598 0L361.931634 672.414503z" p-id="1845" fill="#f5b774"></path><path d="M612.095207 518.732331 612.095207 615.007025 515.436774 615.007025 515.436774 717.374484 708.126354 717.374484 707.832665 916.018683 909.886521 916.018683 909.886521 814.608016 812.400233 814.608016 812.400233 717.374484 909.886521 717.374484 909.886521 518.732331 812.400233 518.732331 812.500517 616.617709 711.050963 616.617709 711.346699 518.732331Z" p-id="1846" fill="#f5b774"></path><path d="M216.411353 717.374484l99.486852 0 0 97.472985-99.486852 0 0-97.472985Z" p-id="1847" fill="#f5b774"></path><path d="M514.82893 818.545698l99.486852 0 0 97.472985-99.486852 0 0-97.472985Z" p-id="1848" fill="#f5b774"></path></svg>