<?xml version="1.0" standalone="no"?><!DOCTYPE svg PUBLIC "-//W3C//DTD SVG 1.1//EN" "http://www.w3.org/Graphics/SVG/1.1/DTD/svg11.dtd"><svg t="1505891787055" class="icon" style="" viewBox="0 0 1024 1024" version="1.1" xmlns="http://www.w3.org/2000/svg" p-id="5230" xmlns:xlink="http://www.w3.org/1999/xlink" width="128" height="128"><defs><style type="text/css"></style></defs><path d="M272.522159 306.590476c-4.892444 3.714032-7.281778 10.028698-5.965206 16.018286 1.332825 5.989587 6.013968 10.67073 12.01981 11.987302 4.933079 1.080889 9.508571 1.007746 23.568254-9.801143 6.257778-4.794921 15.490032-12.88127 24.015238-24.161524l3.730286-4.949333c31.939048-42.479746 106.715429-141.937778 214.714921-136.54146 89.063619 6.501587 152.210286 73.760508 182.572698 194.527492 1.032127 4.104127 1.666032 6.623492 2.364952 8.557714 4.632381 19.748571 12.426159 44.357079 23.63327 52.451556 2.795683 2.015492 5.997714 2.974476 9.191619 2.974476 4.892444 0 9.695492-2.267429 12.759365-6.525968 4.916825-6.794159 3.600254-16.197079-2.82819-21.406476-3.112635-4.01473-8.955937-20.82946-12.409905-35.856254-0.203175-0.893968-0.495746-1.763556-0.853333-2.600635-0.284444-1.024-0.853333-3.258921-1.349079-5.266286-4.827429-19.139048-17.603048-69.989587-48.615619-117.808762-40.066032-61.748825-94.679365-95.532698-162.369016-100.417016-0.113778-0.008127-0.219429-0.008127-0.333206-0.016254C421.603556 121.376508 339.716063 230.278095 304.761905 276.780698l-3.681524 4.884317c-9.573587 12.653714-20.870095 20.528762-24.779175 22.812444C274.984635 304.98946 273.716825 305.696508 272.522159 306.590476z" p-id="5231" fill="#f5b774"></path><path d="M672.410413 394.906413c11.85727-29.647238 12.141714-60.277841 0.78019-84.033016-10.142476-21.187048-29.045841-36.547048-54.653968-44.389587-37.603556-11.50781-83.18781 9.37854-124.952381 57.222095-0.536381 0.585143-59.98527 63.114159-122.400508 101.335365-0.463238 0.276317-46.177524 27.696762-93.891048 40.69181-8.378921 2.283683-13.320127 10.922667-11.028317 19.301587 2.267429 8.378921 10.922667 13.328254 19.301587 11.036444 51.907048-14.132825 99.856254-42.894222 101.953016-44.162032 67.714032-41.463873 129.145905-106.821079 129.666032-107.422476 25.348063-29.045841 62.870349-56.897016 92.127492-47.932952 17.221079 5.274413 29.175873 14.661079 35.506794 27.899937 7.590603 15.839492 6.997333 37.254095-1.61727 58.766222-16.018286 40.033524-65.901714 88.380952-140.474921 136.126984-37.400381 23.958349-131.543365 82.740825-198.030222 111.169016-7.996952 3.413333-11.69473 12.653714-8.289524 20.64254 2.551873 5.965206 8.362667 9.541079 14.457905 9.541079 2.064254 0 4.161016-0.406349 6.176508-1.26781 68.664889-29.354667 164.587683-89.226159 202.654476-113.598984C576.316952 509.578159 648.777143 453.948952 672.410413 394.906413z" p-id="5232" fill="#f5b774"></path><path d="M419.157333 277.504c-7.143619 7.866921-13.539556 16.30273-20.447492 24.364698-9.029079 10.565079-18.903365 20.431238-29.224635 29.736635-10.58946 9.573587-19.171556 16.424635-31.678984 23.600762-13.255111 7.614984-26.778413 15.311238-40.521143 21.999746-4.729905 2.308063-8.777143 3.803429-14.09219 5.404444-8.208254 2.462476-13.303873 10.930794-10.987683 19.342222 2.218667 8.11073 11.125841 13.450159 19.334095 10.987683 16.083302-4.835556 30.663111-13.108825 45.177905-21.357714 12.255492-6.972952 24.429714-13.246984 35.701841-21.820952 21.967238-16.700952 40.870603-36.205714 58.254222-57.539048 7.029841-8.638984 14.555429-16.871619 22.414222-24.771048 4.299175-4.315429 8.744635-8.476444 13.271365-12.539937 2.364952-2.113016 4.762413-4.17727 7.176127-6.217143 1.235302-1.032127 2.47873-2.048 3.730286-3.063873 0.333206-0.26819 2.779429-2.194286 3.397079-2.698159 10.955175-8.387048 22.617397-15.839492 34.889143-22.146032 11.589079-5.957079 23.218794-10.134349 37.335365-13.06819 4.681143-0.975238 5.697016-1.080889 9.207873-1.438476 8.525206-0.885841 15.733841-6.485333 15.733841-15.725714 0-7.907556-7.192381-16.611556-15.733841-15.725714C505.238349 200.695873 456.62273 236.235175 419.157333 277.504z" p-id="5233" fill="#f5b774"></path><path d="M296.781206 578.608762c34.157714-11.727238 209.57054-77.222603 307.777016-214.901841 5.046857-7.070476 3.413333-16.887873-3.66527-21.926603-7.062349-5.046857-16.887873-3.405206-21.918476 3.66527-92.647619 129.861079-259.844063 192.235683-292.408889 203.418413-0.698921 0.235683-1.113397 0.390095-1.26781 0.455111-8.126984 3.072-12.20673 12.149841-9.142857 20.276825 2.381206 6.290286 8.362667 10.15873 14.717968 10.15873 1.77981 0 3.600254-0.308825 5.36381-0.950857L296.781206 578.608762z" p-id="5234" fill="#f5b774"></path><path d="M724.683175 672.223492c-21.796571-7.265524-48.47746-26.258286-74.256254-44.62527-37.367873-26.607746-69.599492-49.590857-95.890286-45.056-19.748571 3.413333-54.239492 25.453714-108.698413 61.35873-39.269587 25.884444-83.764825 55.21473-103.123302 60.424127-8.378921 2.259302-13.352635 10.890159-11.093333 19.277206 1.88546 7.021714 8.240762 11.645968 15.173079 11.645968 1.349079 0 2.730667-0.170667 4.096-0.544508 24.250921-6.534095 66.998857-34.710349 112.258032-64.536381 36.555175-24.096508 82.050032-54.085079 96.743619-56.620698 13.352635-2.275556 46.031238 20.975746 72.289524 39.684063 27.680508 19.707937 56.303746 40.090413 82.553905 48.843175 8.240762 2.755048 17.13981-1.706667 19.88673-9.939302C737.36127 683.86946 732.907683 674.962286 724.683175 672.223492z" p-id="5235" fill="#f5b774"></path><path d="M685.29981 749.251048c-12.669968-4.583619-33.271873-17.310476-53.207365-29.622857-42.097778-26.006349-68.843683-41.788952-88.047746-38.473143-19.447873 3.356444-60.269714 31.118222-128.828952 81.156063-8.395175 6.119619-15.636317 11.410286-20.650667 14.969905-7.094857 5.006222-8.793397 14.823619-3.779048 21.910349 3.063873 4.33981 7.92381 6.656 12.856889 6.656 3.128889 0 6.298413-0.934603 9.061587-2.885079 5.225651-3.689651 12.55619-9.045333 21.048889-15.246222 27.282286-19.919238 99.75873-72.825905 115.476317-75.540317 9.80927-0.666413 45.194159 21.15454 66.332444 34.206476 22.267937 13.758984 43.300571 26.754032 59.050667 32.442921 8.159492 2.958222 17.172317-1.275937 20.13054-9.443556C697.701587 761.222095 693.475556 752.201143 685.29981 749.251048z" p-id="5236" fill="#f5b774"></path><path d="M632.189968 827.432635c-8.825905-5.770159-16.952889-11.564698-24.811683-17.16419-25.795048-18.415746-48.079238-34.328381-72.508952-30.086095-27.526095 4.746159-71.33054 48.810667-79.839492 57.58781-6.030222 6.241524-5.87581 16.197079 0.365714 22.235429 3.047619 2.958222 6.997333 4.429206 10.938921 4.429206 4.112254 0 8.208254-1.601016 11.304635-4.786794 21.048889-21.755937 50.964317-46.470095 62.585905-48.47746 11.475302-1.96673 28.826413 10.378159 48.90819 24.697905 7.728762 5.518222 16.489651 11.776 25.876317 17.903746 7.281778 4.746159 17.034159 2.698159 21.764063-4.575492C641.511619 841.923048 639.463619 832.178794 632.189968 827.432635z" p-id="5237" fill="#f5b774"></path><path d="M770.568127 502.832762c-13.108825-5.534476-26.810921-11.353397-37.839238-20.536889-12.157968-10.101841-17.806222-23.373206-20.333714-38.692571-3.283302-19.976127-33.588825-11.475302-30.313651 8.362667 6.712889 40.79746 36.742095 62.870349 72.62273 78.027175 7.891302 3.34019 16.765968 2.462476 21.504-5.640127C780.12546 517.680762 778.475683 506.172952 770.568127 502.832762z" p-id="5238" fill="#f5b774"></path><path d="M740.051302 584.882794c-11.808508-3.632762-20.764444-8.248889-33.271873-15.62819-22.885587-13.523302-43.76381-33.125587-53.906286-58.148571-3.218286-7.931937-10.345651-13.458286-19.350349-10.979556-7.541841 2.072381-14.205968 11.385905-10.987683 19.342222 18.748952 46.210032 61.765079 81.13981 109.145397 95.735873C751.128381 621.194159 759.369143 590.839873 740.051302 584.882794z" p-id="5239" fill="#f5b774"></path><path d="M137.305397 127.471746 290.108952 127.471746 290.108952 103.090794 112.924444 103.090794 112.924444 280.275302 137.305397 280.275302Z" p-id="5240" fill="#f5b774"></path><path d="M754.078476 103.090794 754.078476 127.471746 906.890159 127.471746 906.890159 280.275302 931.271111 280.275302 931.271111 103.090794Z" p-id="5241" fill="#f5b774"></path><path d="M137.061587 743.724698 112.680635 743.724698 112.680635 920.909206 289.857016 920.909206 289.857016 896.528254 137.061587 896.528254Z" p-id="5242" fill="#f5b774"></path><path d="M906.638222 896.528254 753.82654 896.528254 753.82654 920.909206 931.019175 920.909206 931.019175 743.724698 906.638222 743.724698Z" p-id="5243" fill="#f5b774"></path></svg>