<?xml version="1.0" standalone="no"?><!DOCTYPE svg PUBLIC "-//W3C//DTD SVG 1.1//EN" "http://www.w3.org/Graphics/SVG/1.1/DTD/svg11.dtd"><svg t="1505891372389" class="icon" style="" viewBox="0 0 1024 1024" version="1.1" xmlns="http://www.w3.org/2000/svg" p-id="3364" xmlns:xlink="http://www.w3.org/1999/xlink" width="128" height="128"><defs><style type="text/css"></style></defs><path d="M507.904 82.944c-211.968 0-385.024 172.544-385.024 385.024 0 42.496 0 73.216 15.36 115.2v1.024c6.656 16.384 17.408 28.16 31.744 34.304 6.656 2.56 13.824 4.096 21.504 4.096 9.216 0 18.432-2.048 28.16-6.144 41.984-17.92 28.672-67.072 23.04-88.064v-0.512c-5.632-22.016-8.192-44.544-8.192-67.072 0-151.04 122.88-273.92 273.92-273.92s273.92 122.88 273.92 273.92c0 157.184-18.432 247.296-48.128 376.32-2.048 8.192 3.072 16.896 11.264 18.944 8.192 2.048 16.896-3.072 18.944-11.264v-0.512c30.72-131.584 49.152-222.72 49.152-383.488 0-168.448-136.704-305.152-305.152-305.152-168.448 0-305.152 136.704-305.152 305.152 0 25.088 3.072 50.176 9.216 74.752v1.024c7.68 27.648 9.216 45.056-5.12 50.688-9.216 4.096-17.92 4.608-25.088 2.048-6.144-2.56-11.264-8.192-14.336-16.896-12.8-35.328-13.312-59.904-13.312-104.448 0-194.56 158.72-353.28 353.28-353.28s353.28 158.72 353.28 353.28c-1.024 169.984-30.72 283.136-31.232 284.672-2.048 8.192 2.56 16.896 11.264 19.456 8.192 2.048 16.896-2.56 19.456-11.264 1.024-4.608 31.232-118.272 32.256-292.352 0-212.48-172.544-385.536-385.024-385.536z" p-id="3365" fill="#f5b774"></path><path d="M665.088 898.048c-8.704 0-15.872-7.168-15.872-15.872 0-1.536 0-3.072 0.512-4.608 45.568-146.432 65.536-271.36 65.536-404.992 0-114.688-93.184-207.872-207.872-207.872s-207.872 93.184-207.872 207.872c0 23.552 2.048 44.544 3.584 65.024 7.168 83.456 12.8 148.992-138.752 190.976-8.704 2.048-16.896-3.072-18.944-11.776-2.048-8.192 2.56-16.384 10.752-18.944 126.464-34.816 122.88-75.776 115.712-157.696-1.536-19.968-3.584-43.008-3.584-68.096 0-132.096 107.52-239.104 239.104-239.104s239.104 107.52 239.104 239.104c0 137.216-20.48 264.704-67.072 414.208-1.536 7.168-7.68 11.776-14.336 11.776z" p-id="3366" fill="#f5b774"></path><path d="M551.424 927.232c-8.704 0-15.872-7.168-15.872-15.872 0-3.072 1.024-6.144 2.56-8.704 106.496-157.696 100.864-319.488 97.792-406.528-0.512-12.8-1.024-24.064-1.024-33.28 0-66.56-57.856-120.32-129.024-120.32s-129.024 54.272-129.024 120.32c0 9.728 0.512 20.992 1.536 33.792 5.632 88.064 14.848 235.008-162.304 315.904-7.68 3.584-17.408 0-20.992-7.68-3.584-7.68 0-17.408 7.68-20.992 157.696-71.68 149.504-200.192 143.872-285.184-1.024-12.8-1.536-25.088-1.536-35.84 0-83.968 72.192-152.064 160.256-152.064S665.6 378.88 665.6 462.848c0 9.216 0.512 19.968 1.024 32.256 3.072 90.624 9.216 259.072-102.912 425.472-2.048 4.096-7.168 6.656-12.288 6.656z" p-id="3367" fill="#f5b774"></path><path d="M454.144 927.232c-8.704 0-15.872-7.168-15.872-15.872 0-3.584 1.536-7.68 4.096-10.24 141.312-161.792 128.512-355.328 124.416-418.816-0.512-8.704-1.024-14.848-1.024-19.456 0-29.696-26.112-53.76-58.368-53.76-32.256 0-58.368 24.064-58.368 53.76 0 23.04 0.512 44.032 1.024 64.512 3.584 126.464 5.632 202.752-158.72 333.312-6.656 5.632-16.896 4.096-22.016-2.56-5.632-6.656-4.096-16.896 2.56-22.016 152.064-120.32 150.016-183.296 146.944-307.712-0.512-20.48-1.024-41.472-1.024-65.024 0-47.104 40.448-85.504 89.6-85.504 49.664 0 89.6 38.4 89.6 85.504 0 3.584 0.512 9.728 1.024 17.408 4.608 66.56 17.92 269.824-132.096 441.856-2.56 2.56-7.168 4.608-11.776 4.608z" p-id="3368" fill="#f5b774"></path><path d="M353.28 903.68c-8.704 0-15.872-7.168-15.872-15.872 0-4.608 2.048-8.704 5.12-11.776 141.312-124.928 148.992-256.512 148.992-257.536v-157.696c0-8.704 7.168-15.872 15.872-15.872 8.704 0 15.36 7.168 15.872 15.872v158.208c-0.512 6.656-8.192 146.432-159.744 280.576-2.56 2.56-6.144 4.096-10.24 4.096z m-303.616-638.976c-8.704 0-15.872-7.168-15.872-15.872v-159.744c0-26.112 20.992-47.104 47.104-47.104h160.256c8.704 0 15.872 7.168 15.872 15.872 0 8.704-7.168 15.36-15.872 15.872h-160.256c-8.704 0-15.872 7.168-15.872 15.872v159.744c0.512 8.192-6.656 15.36-15.36 15.36z m914.944 0c-8.704 0-15.872-7.168-15.872-15.872v-160.256c0-8.704-7.168-15.872-15.872-15.872H773.12c-8.704 0-15.872-7.168-15.872-15.872 0-8.704 7.168-15.872 15.872-15.872h159.744c26.112 0 47.104 20.992 47.104 47.104v160.256c0.512 9.728-6.656 16.384-15.36 16.384z m-30.72 720.896h-160.256c-8.704 0-15.872-7.168-15.872-15.872 0-8.704 7.168-15.872 15.872-15.872h160.256c8.704 0 15.872-7.168 15.872-15.872V778.752c0-8.704 7.168-15.872 15.872-15.872 8.704 0 15.872 7.168 15.872 15.872v159.744c-0.512 26.112-21.504 47.104-47.616 47.104z m-692.224 0.512H81.92c-26.112 0-47.104-20.992-47.104-47.104V778.752c0-8.704 7.168-15.872 15.872-15.872 8.704 0 15.36 7.168 15.872 15.872v160.256c0 8.704 7.168 15.872 15.872 15.872h159.744c8.704 0 15.872 7.168 15.872 15.872-0.512 8.192-7.68 15.36-16.384 15.36z" p-id="3369" fill="#f5b774"></path></svg>