<?xml version="1.0" standalone="no"?><!DOCTYPE svg PUBLIC "-//W3C//DTD SVG 1.1//EN" "http://www.w3.org/Graphics/SVG/1.1/DTD/svg11.dtd"><svg t="1505885675085" class="icon" style="" viewBox="0 0 1024 1024" version="1.1" xmlns="http://www.w3.org/2000/svg" p-id="3099" xmlns:xlink="http://www.w3.org/1999/xlink" width="32" height="32"><defs><style type="text/css"></style></defs><path d="M912.139 11.818h-800.29c-55.241 0-100.023 44.797-100.023 100.049v800.277c0 55.241 44.783 100.035 100.023 100.035h800.29c55.252 0 100.035-44.797 100.035-100.035v-800.277c0-55.252-44.783-100.049-100.035-100.049zM762.078 411.965v100.035h-200.060v100.035h200.060v100.023h-200.060v150.061h-100.035v-150.061h-200.073v-100.023h200.073v-100.035h-200.073v-100.035h216.057l-266.080-250.073h150.061l150.048 150.036 150.061-150.036h150.048l-255.834 250.073h205.809z" p-id="3100" fill="#f5b774"></path></svg>